<svg width="32" height="32" viewBox="0 0 32 32" fill="none" xmlns="http://www.w3.org/2000/svg">
<path d="M16.3259 12.369C16.7721 12.8152 16.7721 13.5454 16.3259 13.9916L3.95729 26.3602C3.51107 26.8064 2.78087 26.8064 2.33466 26.3602C1.88845 25.914 1.88845 25.1838 2.33466 24.7376L14.7033 12.369C15.1495 11.9227 15.8797 11.9227 16.3259 12.369Z" fill="#94D8FC" stroke="#1F5CAE" stroke-width="0.716233" stroke-miterlimit="10" stroke-linecap="round" stroke-linejoin="round"/>
<path d="M15.9731 4.42305C15.3632 3.81318 14.3089 3.8694 13.6299 4.54839L10.0556 8.12276C9.37696 8.80175 9.32038 9.85604 9.93025 10.4659L10.5584 11.094L16.6009 5.05154L15.9731 4.42305Z" fill="#2788E9" stroke="#1F5CAE" stroke-width="0.716233" stroke-miterlimit="10" stroke-linecap="round" stroke-linejoin="round"/>
<path d="M24.2717 12.7216L23.6436 12.0935L17.6011 18.136L18.2292 18.7641C18.8391 19.374 19.8934 19.3178 20.5724 18.6388L24.1467 15.0644C24.8254 14.3862 24.8816 13.3315 24.2717 12.7216Z" fill="#2788E9" stroke="#1F5CAE" stroke-width="0.716233" stroke-miterlimit="10" stroke-linecap="round" stroke-linejoin="round"/>
<path d="M16.5993 5.05033L10.5566 11.093L17.5993 18.1357L23.642 12.093L16.5993 5.05033Z" fill="#94D8FC" stroke="#1F5CAE" stroke-width="0.716233" stroke-miterlimit="10" stroke-linecap="round" stroke-linejoin="round"/>
<path d="M14.8594 5.33557L20.6512 11.127" stroke="#1F5CAE" stroke-width="0.716233" stroke-miterlimit="10" stroke-linecap="round" stroke-linejoin="round"/>
<path d="M30.7882 26.6862H16.7561V28.0001H30.7882V26.6862Z" fill="#94D8FC" stroke="#1F5CAE" stroke-width="0.716233" stroke-miterlimit="10" stroke-linecap="round" stroke-linejoin="round"/>
<path d="M28.9181 24.8798H18.6266C18.1299 24.8798 17.7234 25.2862 17.7234 25.7829C17.7234 26.2796 18.1299 26.6861 18.6266 26.6861H28.9181C29.4148 26.6861 29.8213 26.2796 29.8213 25.7829C29.8213 25.2862 29.4148 24.8798 28.9181 24.8798Z" fill="#94D8FC" stroke="#1F5CAE" stroke-width="0.716233" stroke-miterlimit="10" stroke-linecap="round" stroke-linejoin="round"/>
</svg>
