<svg width="58" height="53" viewBox="0 0 58 53" fill="none" xmlns="http://www.w3.org/2000/svg">
<rect x="0.25" y="0.25" width="57.5" height="51.7411" rx="1.75" fill="white" stroke="#EEEEEE" stroke-width="0.5"/>
<rect x="2.46802" y="4.5249" width="21.3901" height="2.46809" fill="#EEEEEE"/>
<rect x="41.9575" y="40.7231" width="11.5177" height="2.46809" fill="#EEEEEE"/>
<rect x="34.1418" y="44.0142" width="19.3333" height="2.46809" fill="#EEEEEE"/>
<rect x="2.46802" y="9.87207" width="41.9574" height="2.46809" fill="#EEEEEE"/>
<rect x="2.87939" y="19.7446" width="51.8298" height="1.64539" fill="#EEEEEE"/>
<rect x="2.87939" y="23.0356" width="51.8298" height="1.64539" fill="#EEEEEE"/>
<rect x="2.87939" y="26.3262" width="51.8298" height="1.64539" fill="#EEEEEE"/>
<rect x="2.87939" y="29.6172" width="51.8298" height="1.64539" fill="#EEEEEE"/>
<rect x="2.87939" y="32.9077" width="51.8298" height="1.64539" fill="#EEEEEE"/>
<path d="M45.6597 42.917C45.6597 41.9542 45.91 41.4098 46.7508 40.8754C47.6574 40.2991 48.996 39.8278 49.5898 41.0277C49.9339 41.7229 50.0493 42.8685 49.7818 43.6041C49.7114 43.7976 49.0051 45.3395 48.7816 45.2439C48.6061 45.1688 48.592 44.6798 48.5694 44.5374C48.4664 43.8874 48.3837 43.2182 48.428 42.5606C48.491 41.625 48.7607 40.3672 49.4922 39.6634C49.7759 39.3903 50.1903 39.4437 50.3846 39.7865C50.7476 40.4268 50.8895 41.2829 50.9942 41.9967C51.0977 42.7024 51.2323 43.3966 51.4185 44.0837" stroke="#005599" stroke-linecap="round"/>
<path d="M48.9504 42.7803H53.4753" stroke="#005599" stroke-linecap="round"/>
</svg>
