<svg width="33" height="32" viewBox="0 0 33 32" fill="none" xmlns="http://www.w3.org/2000/svg">
<path d="M32.3938 6.56165H0.393799V25.438H32.3938V6.56165Z" fill="#2788E9" stroke="#1F5CAE" stroke-width="0.583585" stroke-miterlimit="10" stroke-linecap="round" stroke-linejoin="round"/>
<path d="M16.3938 6.56165V25.4383" stroke="#1F5CAE" stroke-width="0.583585" stroke-miterlimit="10" stroke-linecap="round" stroke-linejoin="round"/>
<path d="M17.6523 8.95528C17.6523 8.26023 17.0888 7.69678 16.3938 7.69678C15.6987 7.69678 15.1353 8.26023 15.1353 8.95528" stroke="#1F5CAE" stroke-width="0.583585" stroke-miterlimit="10" stroke-linecap="round" stroke-linejoin="round"/>
<path d="M17.6525 12.0034C17.6525 11.3083 17.089 10.7449 16.394 10.7449C15.699 10.7449 15.1355 11.3083 15.1355 12.0034" stroke="#1F5CAE" stroke-width="0.583585" stroke-miterlimit="10" stroke-linecap="round" stroke-linejoin="round"/>
<path d="M17.6525 15.0513C17.6525 14.3563 17.089 13.7928 16.394 13.7928C15.699 13.7928 15.1355 14.3563 15.1355 15.0513" stroke="#1F5CAE" stroke-width="0.583585" stroke-miterlimit="10" stroke-linecap="round" stroke-linejoin="round"/>
<path d="M17.6525 18.0994C17.6525 17.4044 17.089 16.8409 16.394 16.8409C15.699 16.8409 15.1355 17.4044 15.1355 18.0994" stroke="#1F5CAE" stroke-width="0.583585" stroke-miterlimit="10" stroke-linecap="round" stroke-linejoin="round"/>
<path d="M17.6525 21.1475C17.6525 20.4525 17.089 19.889 16.394 19.889C15.699 19.889 15.1355 20.4525 15.1355 21.1475" stroke="#1F5CAE" stroke-width="0.583585" stroke-miterlimit="10" stroke-linecap="round" stroke-linejoin="round"/>
<path d="M17.6525 24.1955C17.6525 23.5005 17.089 22.937 16.394 22.937C15.699 22.937 15.1355 23.5005 15.1355 24.1955" stroke="#1F5CAE" stroke-width="0.583585" stroke-miterlimit="10" stroke-linecap="round" stroke-linejoin="round"/>
<path d="M24.7986 8.55432H19.9446V12.7342H24.7986V8.55432Z" fill="#94D8FC" stroke="#1F5CAE" stroke-width="0.583585" stroke-miterlimit="10" stroke-linecap="round" stroke-linejoin="round"/>
<path d="M23.3004 10.4495C23.3004 9.93656 22.8846 9.52075 22.3717 9.52075C21.8587 9.52075 21.4429 9.93656 21.4429 10.4495C21.4429 10.9625 21.8587 11.3783 22.3717 11.3783C22.8846 11.3783 23.3004 10.9625 23.3004 10.4495Z" fill="#1F5CAE"/>
<path d="M20.7385 12.7339C20.7385 11.832 21.4695 11.1011 22.3714 11.1011C23.2733 11.1011 24.0043 11.8323 24.0043 12.7339H20.7385Z" fill="#1F5CAE"/>
<path d="M26.7461 9.01099H30.1618" stroke="#1F5CAE" stroke-width="0.583585" stroke-miterlimit="10" stroke-linecap="round" stroke-linejoin="round"/>
<path d="M26.7458 10.4496H28.7834" stroke="#1F5CAE" stroke-width="0.583585" stroke-miterlimit="10" stroke-linecap="round" stroke-linejoin="round"/>
<path d="M26.7458 11.8878H30.1616" stroke="#1F5CAE" stroke-width="0.583585" stroke-miterlimit="10" stroke-linecap="round" stroke-linejoin="round"/>
<path d="M19.9446 15.0513H30.1617" stroke="#1F5CAE" stroke-width="0.583585" stroke-miterlimit="10" stroke-linecap="round" stroke-linejoin="round"/>
<path d="M19.9446 16.4897H25.6074" stroke="#1F5CAE" stroke-width="0.583585" stroke-miterlimit="10" stroke-linecap="round" stroke-linejoin="round"/>
<path d="M19.9446 17.9281H30.1617" stroke="#1F5CAE" stroke-width="0.583585" stroke-miterlimit="10" stroke-linecap="round" stroke-linejoin="round"/>
<path d="M19.9446 19.3663H30.1617" stroke="#1F5CAE" stroke-width="0.583585" stroke-miterlimit="10" stroke-linecap="round" stroke-linejoin="round"/>
<path d="M19.9446 20.8048H24.3489" stroke="#1F5CAE" stroke-width="0.583585" stroke-miterlimit="10" stroke-linecap="round" stroke-linejoin="round"/>
<path d="M30.3863 22.6967H19.5698V23.8203H30.3863V22.6967Z" fill="#94D8FC"/>
<path d="M7.34543 8.55432H2.49146V12.7342H7.34543V8.55432Z" fill="#94D8FC" stroke="#1F5CAE" stroke-width="0.583585" stroke-miterlimit="10" stroke-linecap="round" stroke-linejoin="round"/>
<path d="M5.8473 10.4495C5.8473 9.93656 5.43149 9.52075 4.91852 9.52075C4.40555 9.52075 3.98975 9.93656 3.98975 10.4495C3.98975 10.9625 4.40555 11.3783 4.91852 11.3783C5.43149 11.3783 5.8473 10.9625 5.8473 10.4495Z" fill="#1F5CAE"/>
<path d="M3.2854 12.7341C3.2854 11.8321 4.01663 11.1012 4.91827 11.1012C5.8202 11.1012 6.55114 11.8324 6.55114 12.7341H3.2854Z" fill="#1F5CAE"/>
<path d="M9.29272 9.01099H12.7084" stroke="#1F5CAE" stroke-width="0.583585" stroke-miterlimit="10" stroke-linecap="round" stroke-linejoin="round"/>
<path d="M9.29272 10.4496H12.7084" stroke="#1F5CAE" stroke-width="0.583585" stroke-miterlimit="10" stroke-linecap="round" stroke-linejoin="round"/>
<path d="M9.29272 11.8878H11.33" stroke="#1F5CAE" stroke-width="0.583585" stroke-miterlimit="10" stroke-linecap="round" stroke-linejoin="round"/>
<path d="M2.49146 15.0513H12.7089" stroke="#1F5CAE" stroke-width="0.583585" stroke-miterlimit="10" stroke-linecap="round" stroke-linejoin="round"/>
<path d="M2.49121 16.4897H12.7086" stroke="#1F5CAE" stroke-width="0.583585" stroke-miterlimit="10" stroke-linecap="round" stroke-linejoin="round"/>
<path d="M2.49121 17.9281H7.34518" stroke="#1F5CAE" stroke-width="0.583585" stroke-miterlimit="10" stroke-linecap="round" stroke-linejoin="round"/>
<path d="M2.49121 19.3663H12.7086" stroke="#1F5CAE" stroke-width="0.583585" stroke-miterlimit="10" stroke-linecap="round" stroke-linejoin="round"/>
<path d="M2.49121 20.8048H4.91805" stroke="#1F5CAE" stroke-width="0.583585" stroke-miterlimit="10" stroke-linecap="round" stroke-linejoin="round"/>
<path d="M13.0081 22.6967H2.19165V23.8203H13.0081V22.6967Z" fill="#94D8FC"/>
</svg>
