<svg width="32" height="32" viewBox="0 0 32 32" fill="none" xmlns="http://www.w3.org/2000/svg">
<path d="M7.29736 7.21472C7.29736 12.0215 11.1938 15.9179 16 15.9179C20.8062 15.9179 24.7026 12.0215 24.7026 7.21472H7.29736Z" fill="#94D8FC" stroke="#1F5CAE" stroke-width="1.03683" stroke-miterlimit="10" stroke-linecap="round" stroke-linejoin="round"/>
<path d="M25.8943 4H6.1059C5.222 4 4.49829 4.72319 4.49829 5.60761C4.49829 6.49202 5.22148 7.2152 6.1059 7.2152H25.8943C26.7782 7.2152 27.5019 6.49202 27.5019 5.60761C27.5019 4.72319 26.7787 4 25.8943 4Z" fill="#94D8FC" stroke="#1F5CAE" stroke-width="1.03683" stroke-miterlimit="10" stroke-linecap="round" stroke-linejoin="round"/>
<path d="M24.7033 24.7848C24.7033 19.9785 20.8069 16.0822 16.0007 16.0822C11.1945 16.0822 7.2981 19.9785 7.2981 24.7848H24.7033Z" fill="#94D8FC" stroke="#1F5CAE" stroke-width="1.03683" stroke-miterlimit="10" stroke-linecap="round" stroke-linejoin="round"/>
<path d="M6.10639 28H25.8948C26.7787 28 27.5024 27.2768 27.5024 26.3924C27.5024 25.5085 26.7792 24.7848 25.8948 24.7848H6.10639C5.22249 24.7848 4.49878 25.508 4.49878 26.3924C4.4993 27.2768 5.22249 28 6.10639 28Z" fill="#94D8FC" stroke="#1F5CAE" stroke-width="1.03683" stroke-miterlimit="10" stroke-linecap="round" stroke-linejoin="round"/>
<path d="M10.7178 24.7848C10.7178 24.7848 12.6349 22.5593 16.0004 21.525C16.0004 21.525 18.9606 22.4608 21.2831 24.7848H10.7178Z" fill="#2788E9" stroke="#1F5CAE" stroke-width="1.03683" stroke-miterlimit="10" stroke-linecap="round" stroke-linejoin="round"/>
<path d="M16.0005 15.9172V21.5249" stroke="#1F5CAE" stroke-width="1.03683" stroke-miterlimit="10" stroke-linecap="round" stroke-linejoin="round"/>
<path d="M23.2045 12.0981C20.5087 11.1432 18.615 10.8731 14.9539 11.9462C11.8813 12.8473 8.58936 11.7793 8.58936 11.7793C8.58936 11.7793 10.5795 15.9173 16.0001 15.9173C16.0001 15.9173 20.1801 16.2356 23.2045 12.0981Z" fill="#2788E9" stroke="#1F5CAE" stroke-width="1.03683" stroke-miterlimit="10" stroke-linecap="round" stroke-linejoin="round"/>
</svg>
